<svg id="logo" xmlns="http://www.w3.org/2000/svg" width="151.506" height="73" viewBox="0 0 151.506 73">
  <path id="パス_1562" data-name="パス 1562" d="M98.981,25.2h-.788c-1.7,0-3.063,1.4-3.063,3.725s1.366,3.719,3.063,3.719h.812V36.3h-1a5.621,5.621,0,0,1-4.76-2.943,4.872,4.872,0,0,1-4.64,2.943H87.62V32.644h.812c1.7,0,3.063-1.4,3.063-3.725s-1.354-3.731-3.063-3.731H87.62V21.56h1a5.629,5.629,0,0,1,4.76,2.943,4.861,4.861,0,0,1,4.634-2.943h.969Z" transform="translate(-34.893 -8.586)"/>
  <path id="パス_1563" data-name="パス 1563" d="M118.837,36.062v-8.31c0-1.757-1.33-2.907-3.454-2.907-1.847,0-3.274,1.7-3.274,3.851a3.407,3.407,0,0,0,3.394,3.544,5.743,5.743,0,0,0,2.221-.451v4.032a10.577,10.577,0,0,1-2.455.367c-4.549,0-7.029-3.49-7.029-7.336,0-4.73,3.153-7.883,7.215-7.883,4.429,0,7.275,2.792,7.275,6.613v8.491h-3.893Z" transform="translate(-43.105 -8.351)"/>
  <path id="パス_1564" data-name="パス 1564" d="M136.25,36.178V21.441h3.671v2.792h.06a4,4,0,0,1,3.731-2.973h.812v4.128h-.939c-1.944,0-3.213,1.33-3.213,3.574v7.215h-4.11Z" transform="translate(-54.26 -8.466)"/>
  <path id="パス_1565" data-name="パス 1565" d="M166.212,21.57l-3.785,12.186c-.451,1.486-1.179,2.907-3.153,2.907s-2.7-1.426-3.153-2.907L152.54,21.57h4.3l2.455,9.761h.06l2.491-9.761Z" transform="translate(-60.747 -8.59)"/>
  <rect id="長方形_18316" data-name="長方形 18316" width="3.881" height="14.737" transform="translate(106.639 12.98)"/>
  <path id="パス_1566" data-name="パス 1566" d="M201.838,28.7c0,4.212-2.876,7.727-7.456,7.727s-7.462-3.514-7.462-7.727,2.876-7.727,7.462-7.727,7.456,3.514,7.456,7.727m-11.036,0c0,2.455,1.426,3.851,3.58,3.851s3.574-1.4,3.574-3.851-1.42-3.851-3.574-3.851-3.574,1.4-3.574,3.851h0Z" transform="translate(-74.438 -8.351)"/>
  <path id="パス_1567" data-name="パス 1567" d="M44.609,22.44C44.741,44.88,22.3,73,22.3,73S0,44.88,0,22.44a22.3,22.3,0,1,1,44.609,0" transform="translate(0)" fill="#941c80"/>
  <path id="パス_1568" data-name="パス 1568" d="M25.432,10.562a14.87,14.87,0,1,1-14.87,14.87,14.867,14.867,0,0,1,14.87-14.87m0-2.7A17.572,17.572,0,1,0,43,25.432,17.569,17.569,0,0,0,25.432,7.86" transform="translate(-3.13 -3.13)" fill="#fff"/>
  <path id="パス_1569" data-name="パス 1569" d="M39.489,26.157H38.478c-2.16,0-3.924,1.763-3.924,4.724s1.745,4.742,3.917,4.742h1.047v4.6H38.237a7.238,7.238,0,0,1-6.1-3.725A6.245,6.245,0,0,1,26.2,40.221H24.92v-4.6h1.047c2.166,0,3.924-1.763,3.924-4.724s-1.751-4.742-3.924-4.742H24.92v-4.6H26.2a7.245,7.245,0,0,1,6.1,3.725,6.245,6.245,0,0,1,5.939-3.725h1.246v4.6Z" transform="translate(-9.924 -8.586)" fill="#fff"/>
  <path id="パス_1570" data-name="パス 1570" d="M93.616,60.665H89.6v3.183H87.61V55.52H93.9v1.787H89.6v1.559h4.02Z" transform="translate(-34.889 -22.11)" fill="#009fe3"/>
  <rect id="長方形_18317" data-name="長方形 18317" width="1.986" height="8.328" transform="translate(60.219 33.41)" fill="#009fe3"/>
  <path id="パス_1571" data-name="パス 1571" d="M112.259,63.848H105.88V55.52h6.355v1.787h-4.369v1.444h4.116v1.781h-4.116v1.522h4.393Z" transform="translate(-42.165 -22.11)" fill="#009fe3"/>
  <path id="パス_1572" data-name="パス 1572" d="M124.9,63.848H118.73V55.52h1.986V62H124.9Z" transform="translate(-47.283 -22.11)" fill="#009fe3"/>
  <path id="パス_1573" data-name="パス 1573" d="M134.052,55.52a4.167,4.167,0,1,1,0,8.328H130.49V55.52Zm-1.577,1.841v4.652h1.535a2.326,2.326,0,0,0,0-4.652Z" transform="translate(-51.966 -22.11)" fill="#009fe3"/>
  <path id="パス_1574" data-name="パス 1574" d="M159.388,63.848H157.4v-5.7l-1.667,4.91h-2.112l-1.661-4.892v5.681H149.97V55.52h2.816l1.9,5.29,1.89-5.29h2.816Z" transform="translate(-59.723 -22.11)" fill="#009fe3"/>
  <path id="パス_1575" data-name="パス 1575" d="M175.758,63.848h-2.118l-.632-1.751H169.7l-.632,1.751H166.99l3.2-8.328h2.377ZM170.342,60.3h2.022l-1.011-2.81Z" transform="translate(-66.501 -22.11)" fill="#009fe3"/>
  <path id="パス_1576" data-name="パス 1576" d="M190.621,63.848h-1.908l-3.8-5.079v5.079H182.93V55.52h1.9l3.8,5.079V55.52h1.992Z" transform="translate(-72.849 -22.11)" fill="#009fe3"/>
  <path id="パス_1577" data-name="パス 1577" d="M205.838,63.848h-2.118l-.632-1.751h-3.31l-.632,1.751H197.07l3.2-8.328h2.377l3.2,8.328ZM200.422,60.3h2.022l-1.011-2.81-1.011,2.81Z" transform="translate(-78.48 -22.11)" fill="#009fe3"/>
  <path id="パス_1578" data-name="パス 1578" d="M219.094,56.466l-1.414,1.39a2.347,2.347,0,0,0-1.781-.734,2.48,2.48,0,0,0,.006,4.946,1.865,1.865,0,0,0,2.106-1.5h-2.028V59.029h4a4.555,4.555,0,0,1,.042.626,4,4,0,0,1-4.044,4.23,4.211,4.211,0,0,1-4.417-4.315,4.472,4.472,0,0,1,7.528-3.111" transform="translate(-84.251 -22.003)" fill="#009fe3"/>
  <path id="パス_1579" data-name="パス 1579" d="M233.929,63.848H227.55V55.52H233.9v1.787h-4.369v1.444h4.116v1.781h-4.116v1.522h4.393Z" transform="translate(-90.619 -22.11)" fill="#009fe3"/>
  <path id="パス_1580" data-name="パス 1580" d="M244.023,55.52c2.058,0,3.153,1.023,3.153,2.666a2.447,2.447,0,0,1-2.323,2.485l2.389,3.177h-2.365l-2.2-3.117h-.295v3.117H240.4V55.52h3.623Zm-1.637,1.805v1.739H244c.716,0,1.155-.277,1.155-.873s-.451-.861-1.155-.861h-1.613Z" transform="translate(-95.736 -22.11)" fill="#009fe3"/>
  <path id="パス_1581" data-name="パス 1581" d="M90.993,93.01a1.872,1.872,0,0,1-1.871,1.956,1.639,1.639,0,0,1-1.366-.632v2.142h-.6V91.138h.6v.554a1.663,1.663,0,0,1,1.366-.632,1.87,1.87,0,0,1,1.871,1.95m-3.28,0a1.34,1.34,0,1,0,1.336-1.4,1.315,1.315,0,0,0-1.336,1.4" transform="translate(-34.71 -36.263)"/>
  <path id="パス_1582" data-name="パス 1582" d="M98.844,93.01a1.977,1.977,0,1,1-1.98-1.95,1.924,1.924,0,0,1,1.98,1.95m-3.346,0a1.372,1.372,0,1,0,1.372-1.4,1.349,1.349,0,0,0-1.372,1.4" transform="translate(-37.789 -36.263)"/>
  <path id="パス_1583" data-name="パス 1583" d="M107.048,94.331l1.125-3.141h.614L107.4,94.945h-.7l-1.119-3.117-1.113,3.117h-.692L102.39,91.19h.626l1.125,3.135,1.113-3.135h.668Z" transform="translate(-40.775 -36.315)"/>
  <path id="パス_1584" data-name="パス 1584" d="M117.617,93a1.344,1.344,0,0,1-.012.223H114.6a1.276,1.276,0,0,0,1.33,1.222,1.742,1.742,0,0,0,1.191-.469l.319.4a2.117,2.117,0,0,1-1.541.584,1.954,1.954,0,0,1-.036-3.905A1.763,1.763,0,0,1,117.623,93m-3.009-.259h2.407a1.177,1.177,0,0,0-1.173-1.155,1.219,1.219,0,0,0-1.234,1.155" transform="translate(-45.399 -36.263)"/>
  <path id="パス_1585" data-name="パス 1585" d="M124.239,91.2l-.144.584a1.474,1.474,0,0,0-.65-.15,1.04,1.04,0,0,0-1,1.167v2.1h-.59V91.142h.584v.53a1.313,1.313,0,0,1,1.113-.6,1.635,1.635,0,0,1,.692.126" transform="translate(-48.525 -36.267)"/>
  <path id="パス_1586" data-name="パス 1586" d="M130.207,93a1.344,1.344,0,0,1-.012.223h-3.009a1.276,1.276,0,0,0,1.33,1.222,1.742,1.742,0,0,0,1.191-.469l.319.4a2.117,2.117,0,0,1-1.541.584,1.954,1.954,0,0,1-.036-3.905A1.763,1.763,0,0,1,130.213,93m-3.009-.259h2.407a1.177,1.177,0,0,0-1.173-1.155,1.219,1.219,0,0,0-1.234,1.155" transform="translate(-50.413 -36.263)"/>
  <path id="パス_1587" data-name="パス 1587" d="M137.21,90.455V87.94h.59v5.7h-.59v-.56a1.651,1.651,0,0,1-1.372.632,1.954,1.954,0,0,1,0-3.905,1.675,1.675,0,0,1,1.372.632m-2.642,1.318a1.339,1.339,0,0,0,1.342,1.4,1.4,1.4,0,0,0,0-2.8,1.341,1.341,0,0,0-1.342,1.4" transform="translate(-53.348 -35.021)"/>
  <path id="パス_1588" data-name="パス 1588" d="M150,91.767a1.872,1.872,0,0,1-1.871,1.956,1.639,1.639,0,0,1-1.366-.632v.554h-.6v-5.7h.6v2.509a1.663,1.663,0,0,1,1.366-.632A1.87,1.87,0,0,1,150,91.767m-3.28,0a1.34,1.34,0,1,0,1.336-1.4,1.315,1.315,0,0,0-1.336,1.4" transform="translate(-58.21 -35.021)"/>
  <path id="パス_1589" data-name="パス 1589" d="M154.141,96.546h-.656l1.4-2.413L153.16,91.19h.662l1.4,2.353,1.324-2.353h.65Z" transform="translate(-60.994 -36.315)"/>
  <path id="パス_1590" data-name="パス 1590" d="M166.658,88.21c1.167,0,2,.409,2,1.462a1.226,1.226,0,0,1-.836,1.228,1.32,1.32,0,0,1,.957,1.318c0,1.077-.794,1.541-2.022,1.541H164.51V88.21Zm-1.51.6v1.841h1.492c.764,0,1.354-.181,1.354-.927s-.6-.909-1.36-.909h-1.486Zm0,2.431v1.92h1.583c.83,0,1.378-.217,1.378-.963s-.548-.957-1.378-.957Z" transform="translate(-65.514 -35.128)"/>
  <path id="パス_1591" data-name="パス 1591" d="M177.934,93.758h-.68l-.632-1.547h-2.744l-.626,1.547h-.662l2.281-5.548h.788l2.281,5.548Zm-3.809-2.148h2.257l-1.131-2.768-1.131,2.768Z" transform="translate(-68.732 -35.128)"/>
  <path id="パス_1592" data-name="パス 1592" d="M186.4,89.213a2.907,2.907,0,0,0-1.673-.518c-.836,0-1.432.379-1.432,1,0,.518.415.794,1.282.9l.53.066c.915.108,1.733.5,1.733,1.456,0,1.1-1,1.667-2.2,1.667a3.629,3.629,0,0,1-2.178-.71l.349-.505a3.044,3.044,0,0,0,1.823.62c.861,0,1.541-.349,1.541-1.011,0-.536-.463-.806-1.342-.909l-.56-.06c-.945-.108-1.637-.548-1.637-1.468,0-1.053.939-1.643,2.1-1.643a3.377,3.377,0,0,1,1.992.608l-.325.518Z" transform="translate(-72.662 -35.085)"/>
  <path id="パス_1593" data-name="パス 1593" d="M195.539,91.261h-3.051v2.5h-.638V88.21h3.839v.6h-3.2v1.847h3.051Z" transform="translate(-76.402 -35.128)"/>
  <path id="パス_1594" data-name="パス 1594" d="M220.977,24.472a3.584,3.584,0,1,1-3.568-3.5,3.5,3.5,0,0,1,3.568,3.5m-.915,0a2.669,2.669,0,1,0-2.654,2.672,2.657,2.657,0,0,0,2.654-2.672m-1.149-.578c0,.518-.361.891-1,.975l1.029,1.2h-.891l-.957-1.179h-.259v1.179h-.746V22.848h1.516c.83,0,1.3.409,1.3,1.047m-2.07-.4v.794h.752c.343,0,.554-.126.554-.391s-.211-.4-.554-.4Z" transform="translate(-85.147 -8.351)"/>
  <path id="パス_1595" data-name="パス 1595" d="M220.977,24.472a3.584,3.584,0,1,1-3.568-3.5,3.5,3.5,0,0,1,3.568,3.5m-.915,0a2.669,2.669,0,1,0-2.654,2.672,2.657,2.657,0,0,0,2.654-2.672m-1.149-.578c0,.518-.361.891-1,.975l1.029,1.2h-.891l-.957-1.179h-.259v1.179h-.746V22.848h1.516c.83,0,1.3.409,1.3,1.047m-2.07-.4v.794h.752c.343,0,.554-.126.554-.391s-.211-.4-.554-.4Z" transform="translate(-85.147 -8.351)"/>
</svg>
